<mxfile host="app.diagrams.net" modified="2023-06-08T08:05:56.051Z" agent="Mozilla/5.0 (Windows NT 10.0; Win64; x64) AppleWebKit/537.36 (KHTML, like Gecko) Chrome/113.0.0.0 Safari/537.36" etag="wuagiO6mDNPm7VUMzbcl" version="21.3.5" type="github">
  <diagram id="C5RBs43oDa-KdzZeNtuy" name="Page-1">
    <mxGraphModel dx="3026" dy="1949" grid="1" gridSize="10" guides="1" tooltips="1" connect="1" arrows="1" fold="1" page="1" pageScale="1" pageWidth="827" pageHeight="1169" math="0" shadow="0">
      <root>
        <mxCell id="WIyWlLk6GJQsqaUBKTNV-0" />
        <mxCell id="WIyWlLk6GJQsqaUBKTNV-1" parent="WIyWlLk6GJQsqaUBKTNV-0" />
        <mxCell id="yMdJhrfQFzJRElw5PAQI-50" value="" style="rounded=0;whiteSpace=wrap;html=1;dashed=1;" vertex="1" parent="WIyWlLk6GJQsqaUBKTNV-1">
          <mxGeometry x="-1180" y="-1120" width="250" height="880" as="geometry" />
        </mxCell>
        <mxCell id="JOjSNyH2Hw5vAPHBL3Yq-51" style="edgeStyle=orthogonalEdgeStyle;rounded=0;orthogonalLoop=1;jettySize=auto;html=1;" parent="WIyWlLk6GJQsqaUBKTNV-1" source="WIyWlLk6GJQsqaUBKTNV-3" target="JOjSNyH2Hw5vAPHBL3Yq-50" edge="1">
          <mxGeometry relative="1" as="geometry" />
        </mxCell>
        <mxCell id="WIyWlLk6GJQsqaUBKTNV-3" value="登录页面" style="rounded=1;whiteSpace=wrap;html=1;fontSize=12;glass=0;strokeWidth=1;shadow=0;" parent="WIyWlLk6GJQsqaUBKTNV-1" vertex="1">
          <mxGeometry x="40" y="-150" width="120" height="40" as="geometry" />
        </mxCell>
        <mxCell id="WIyWlLk6GJQsqaUBKTNV-4" value="Yes" style="rounded=0;html=1;jettySize=auto;orthogonalLoop=1;fontSize=11;endArrow=block;endFill=0;endSize=8;strokeWidth=1;shadow=0;labelBackgroundColor=none;edgeStyle=orthogonalEdgeStyle;" parent="WIyWlLk6GJQsqaUBKTNV-1" source="WIyWlLk6GJQsqaUBKTNV-6" target="WIyWlLk6GJQsqaUBKTNV-10" edge="1">
          <mxGeometry x="0.2" relative="1" as="geometry">
            <mxPoint as="offset" />
          </mxGeometry>
        </mxCell>
        <mxCell id="WIyWlLk6GJQsqaUBKTNV-5" value="选择游客登录" style="edgeStyle=orthogonalEdgeStyle;rounded=0;html=1;jettySize=auto;orthogonalLoop=1;fontSize=11;endArrow=block;endFill=0;endSize=8;strokeWidth=1;shadow=0;labelBackgroundColor=none;entryX=0;entryY=0.5;entryDx=0;entryDy=0;" parent="WIyWlLk6GJQsqaUBKTNV-1" source="WIyWlLk6GJQsqaUBKTNV-6" target="JOjSNyH2Hw5vAPHBL3Yq-17" edge="1">
          <mxGeometry y="10" relative="1" as="geometry">
            <mxPoint as="offset" />
            <mxPoint x="290" y="160" as="targetPoint" />
          </mxGeometry>
        </mxCell>
        <mxCell id="WIyWlLk6GJQsqaUBKTNV-6" value="选择第三方登录" style="rhombus;whiteSpace=wrap;html=1;shadow=0;fontFamily=Helvetica;fontSize=12;align=center;strokeWidth=1;spacing=6;spacingTop=-4;" parent="WIyWlLk6GJQsqaUBKTNV-1" vertex="1">
          <mxGeometry x="50" y="190" width="100" height="80" as="geometry" />
        </mxCell>
        <mxCell id="JOjSNyH2Hw5vAPHBL3Yq-19" value="是" style="edgeStyle=orthogonalEdgeStyle;rounded=0;orthogonalLoop=1;jettySize=auto;html=1;entryX=0.5;entryY=0;entryDx=0;entryDy=0;exitX=0.5;exitY=1;exitDx=0;exitDy=0;" parent="WIyWlLk6GJQsqaUBKTNV-1" source="JOjSNyH2Hw5vAPHBL3Yq-17" target="JOjSNyH2Hw5vAPHBL3Yq-22" edge="1">
          <mxGeometry relative="1" as="geometry">
            <mxPoint x="520" y="220" as="sourcePoint" />
          </mxGeometry>
        </mxCell>
        <mxCell id="JOjSNyH2Hw5vAPHBL3Yq-25" style="edgeStyle=orthogonalEdgeStyle;rounded=0;orthogonalLoop=1;jettySize=auto;html=1;entryX=1;entryY=0.5;entryDx=0;entryDy=0;exitX=0.5;exitY=1;exitDx=0;exitDy=0;" parent="WIyWlLk6GJQsqaUBKTNV-1" source="WIyWlLk6GJQsqaUBKTNV-7" target="JOjSNyH2Hw5vAPHBL3Yq-22" edge="1">
          <mxGeometry relative="1" as="geometry" />
        </mxCell>
        <mxCell id="WIyWlLk6GJQsqaUBKTNV-7" value="创建新游客账号" style="rounded=1;whiteSpace=wrap;html=1;fontSize=12;glass=0;strokeWidth=1;shadow=0;" parent="WIyWlLk6GJQsqaUBKTNV-1" vertex="1">
          <mxGeometry x="610" y="280" width="126" height="40" as="geometry" />
        </mxCell>
        <mxCell id="WIyWlLk6GJQsqaUBKTNV-8" value="否" style="rounded=0;html=1;jettySize=auto;orthogonalLoop=1;fontSize=11;endArrow=block;endFill=0;endSize=8;strokeWidth=1;shadow=0;labelBackgroundColor=none;edgeStyle=orthogonalEdgeStyle;" parent="WIyWlLk6GJQsqaUBKTNV-1" source="WIyWlLk6GJQsqaUBKTNV-10" target="WIyWlLk6GJQsqaUBKTNV-11" edge="1">
          <mxGeometry x="-0.2" relative="1" as="geometry">
            <mxPoint as="offset" />
          </mxGeometry>
        </mxCell>
        <mxCell id="WIyWlLk6GJQsqaUBKTNV-9" value="是" style="edgeStyle=orthogonalEdgeStyle;rounded=0;html=1;jettySize=auto;orthogonalLoop=1;fontSize=11;endArrow=block;endFill=0;endSize=8;strokeWidth=1;shadow=0;labelBackgroundColor=none;" parent="WIyWlLk6GJQsqaUBKTNV-1" source="WIyWlLk6GJQsqaUBKTNV-10" edge="1">
          <mxGeometry x="-0.4" y="10" relative="1" as="geometry">
            <mxPoint as="offset" />
            <mxPoint x="250" y="370" as="targetPoint" />
          </mxGeometry>
        </mxCell>
        <mxCell id="WIyWlLk6GJQsqaUBKTNV-10" value="授权成功" style="rhombus;whiteSpace=wrap;html=1;shadow=0;fontFamily=Helvetica;fontSize=12;align=center;strokeWidth=1;spacing=6;spacingTop=-4;" parent="WIyWlLk6GJQsqaUBKTNV-1" vertex="1">
          <mxGeometry x="50" y="330" width="100" height="80" as="geometry" />
        </mxCell>
        <mxCell id="JOjSNyH2Hw5vAPHBL3Yq-77" style="edgeStyle=orthogonalEdgeStyle;rounded=0;orthogonalLoop=1;jettySize=auto;html=1;entryX=0;entryY=0.5;entryDx=0;entryDy=0;" parent="WIyWlLk6GJQsqaUBKTNV-1" source="WIyWlLk6GJQsqaUBKTNV-11" target="JOjSNyH2Hw5vAPHBL3Yq-53" edge="1">
          <mxGeometry relative="1" as="geometry">
            <Array as="points">
              <mxPoint y="500" />
              <mxPoint y="140" />
            </Array>
          </mxGeometry>
        </mxCell>
        <mxCell id="WIyWlLk6GJQsqaUBKTNV-11" value="登录失败" style="rounded=1;whiteSpace=wrap;html=1;fontSize=12;glass=0;strokeWidth=1;shadow=0;" parent="WIyWlLk6GJQsqaUBKTNV-1" vertex="1">
          <mxGeometry x="40" y="480" width="120" height="40" as="geometry" />
        </mxCell>
        <mxCell id="JOjSNyH2Hw5vAPHBL3Yq-8" style="edgeStyle=orthogonalEdgeStyle;rounded=0;orthogonalLoop=1;jettySize=auto;html=1;exitX=0.5;exitY=1;exitDx=0;exitDy=0;entryX=0.5;entryY=0;entryDx=0;entryDy=0;" parent="WIyWlLk6GJQsqaUBKTNV-1" source="JOjSNyH2Hw5vAPHBL3Yq-0" edge="1">
          <mxGeometry relative="1" as="geometry">
            <mxPoint x="247" y="480" as="targetPoint" />
          </mxGeometry>
        </mxCell>
        <mxCell id="JOjSNyH2Hw5vAPHBL3Yq-74" value="是" style="edgeLabel;html=1;align=center;verticalAlign=middle;resizable=0;points=[];" parent="JOjSNyH2Hw5vAPHBL3Yq-8" vertex="1" connectable="0">
          <mxGeometry x="-0.2967" y="-3" relative="1" as="geometry">
            <mxPoint as="offset" />
          </mxGeometry>
        </mxCell>
        <mxCell id="JOjSNyH2Hw5vAPHBL3Yq-12" style="edgeStyle=orthogonalEdgeStyle;rounded=0;orthogonalLoop=1;jettySize=auto;html=1;" parent="WIyWlLk6GJQsqaUBKTNV-1" source="JOjSNyH2Hw5vAPHBL3Yq-0" target="JOjSNyH2Hw5vAPHBL3Yq-11" edge="1">
          <mxGeometry relative="1" as="geometry" />
        </mxCell>
        <mxCell id="JOjSNyH2Hw5vAPHBL3Yq-75" value="否" style="edgeLabel;html=1;align=center;verticalAlign=middle;resizable=0;points=[];" parent="JOjSNyH2Hw5vAPHBL3Yq-12" vertex="1" connectable="0">
          <mxGeometry x="-0.4163" relative="1" as="geometry">
            <mxPoint as="offset" />
          </mxGeometry>
        </mxCell>
        <mxCell id="JOjSNyH2Hw5vAPHBL3Yq-0" value="获取已经&lt;br&gt;绑定账号" style="rhombus;whiteSpace=wrap;html=1;" parent="WIyWlLk6GJQsqaUBKTNV-1" vertex="1">
          <mxGeometry x="207" y="330" width="80" height="80" as="geometry" />
        </mxCell>
        <mxCell id="JOjSNyH2Hw5vAPHBL3Yq-6" value="登录绑定的账号" style="rounded=1;whiteSpace=wrap;html=1;fontSize=12;glass=0;strokeWidth=1;shadow=0;" parent="WIyWlLk6GJQsqaUBKTNV-1" vertex="1">
          <mxGeometry x="180" y="480" width="120" height="40" as="geometry" />
        </mxCell>
        <mxCell id="JOjSNyH2Hw5vAPHBL3Yq-11" value="登录token注册的账号" style="rounded=1;whiteSpace=wrap;html=1;fontSize=12;glass=0;strokeWidth=1;shadow=0;" parent="WIyWlLk6GJQsqaUBKTNV-1" vertex="1">
          <mxGeometry x="320" y="480" width="120" height="40" as="geometry" />
        </mxCell>
        <mxCell id="JOjSNyH2Hw5vAPHBL3Yq-60" style="edgeStyle=orthogonalEdgeStyle;rounded=0;orthogonalLoop=1;jettySize=auto;html=1;" parent="WIyWlLk6GJQsqaUBKTNV-1" source="JOjSNyH2Hw5vAPHBL3Yq-15" target="JOjSNyH2Hw5vAPHBL3Yq-26" edge="1">
          <mxGeometry relative="1" as="geometry" />
        </mxCell>
        <mxCell id="JOjSNyH2Hw5vAPHBL3Yq-15" value="游客登录成功" style="rounded=1;whiteSpace=wrap;html=1;fontSize=12;glass=0;strokeWidth=1;shadow=0;" parent="WIyWlLk6GJQsqaUBKTNV-1" vertex="1">
          <mxGeometry x="454" y="480" width="120" height="40" as="geometry" />
        </mxCell>
        <mxCell id="JOjSNyH2Hw5vAPHBL3Yq-18" style="edgeStyle=orthogonalEdgeStyle;rounded=0;orthogonalLoop=1;jettySize=auto;html=1;entryX=0.5;entryY=0;entryDx=0;entryDy=0;" parent="WIyWlLk6GJQsqaUBKTNV-1" source="JOjSNyH2Hw5vAPHBL3Yq-17" target="WIyWlLk6GJQsqaUBKTNV-7" edge="1">
          <mxGeometry relative="1" as="geometry" />
        </mxCell>
        <mxCell id="JOjSNyH2Hw5vAPHBL3Yq-76" value="否" style="edgeLabel;html=1;align=center;verticalAlign=middle;resizable=0;points=[];" parent="JOjSNyH2Hw5vAPHBL3Yq-18" vertex="1" connectable="0">
          <mxGeometry x="-0.4359" y="-3" relative="1" as="geometry">
            <mxPoint as="offset" />
          </mxGeometry>
        </mxCell>
        <mxCell id="JOjSNyH2Hw5vAPHBL3Yq-17" value="是否存在&lt;br&gt;游客账号" style="rhombus;whiteSpace=wrap;html=1;" parent="WIyWlLk6GJQsqaUBKTNV-1" vertex="1">
          <mxGeometry x="474" y="190" width="80" height="80" as="geometry" />
        </mxCell>
        <mxCell id="JOjSNyH2Hw5vAPHBL3Yq-24" style="edgeStyle=orthogonalEdgeStyle;rounded=0;orthogonalLoop=1;jettySize=auto;html=1;entryX=0.5;entryY=0;entryDx=0;entryDy=0;" parent="WIyWlLk6GJQsqaUBKTNV-1" source="JOjSNyH2Hw5vAPHBL3Yq-22" target="JOjSNyH2Hw5vAPHBL3Yq-15" edge="1">
          <mxGeometry relative="1" as="geometry" />
        </mxCell>
        <mxCell id="JOjSNyH2Hw5vAPHBL3Yq-22" value="登录游客账号" style="rounded=1;whiteSpace=wrap;html=1;fontSize=12;glass=0;strokeWidth=1;shadow=0;" parent="WIyWlLk6GJQsqaUBKTNV-1" vertex="1">
          <mxGeometry x="451" y="360" width="126" height="40" as="geometry" />
        </mxCell>
        <mxCell id="JOjSNyH2Hw5vAPHBL3Yq-27" style="edgeStyle=orthogonalEdgeStyle;rounded=0;orthogonalLoop=1;jettySize=auto;html=1;" parent="WIyWlLk6GJQsqaUBKTNV-1" source="JOjSNyH2Hw5vAPHBL3Yq-26" edge="1">
          <mxGeometry relative="1" as="geometry">
            <mxPoint x="514" y="690" as="targetPoint" />
          </mxGeometry>
        </mxCell>
        <mxCell id="JOjSNyH2Hw5vAPHBL3Yq-26" value="绑定流程" style="rounded=1;whiteSpace=wrap;html=1;" parent="WIyWlLk6GJQsqaUBKTNV-1" vertex="1">
          <mxGeometry x="454" y="585" width="120" height="35" as="geometry" />
        </mxCell>
        <mxCell id="JOjSNyH2Hw5vAPHBL3Yq-30" value="否" style="edgeStyle=orthogonalEdgeStyle;rounded=0;orthogonalLoop=1;jettySize=auto;html=1;entryX=0.5;entryY=0;entryDx=0;entryDy=0;" parent="WIyWlLk6GJQsqaUBKTNV-1" source="JOjSNyH2Hw5vAPHBL3Yq-29" target="JOjSNyH2Hw5vAPHBL3Yq-38" edge="1">
          <mxGeometry relative="1" as="geometry">
            <mxPoint x="300" y="690" as="targetPoint" />
          </mxGeometry>
        </mxCell>
        <mxCell id="JOjSNyH2Hw5vAPHBL3Yq-66" value="是" style="edgeStyle=orthogonalEdgeStyle;rounded=0;orthogonalLoop=1;jettySize=auto;html=1;exitX=0.5;exitY=1;exitDx=0;exitDy=0;entryX=0.5;entryY=0;entryDx=0;entryDy=0;" parent="WIyWlLk6GJQsqaUBKTNV-1" source="JOjSNyH2Hw5vAPHBL3Yq-29" target="JOjSNyH2Hw5vAPHBL3Yq-65" edge="1">
          <mxGeometry relative="1" as="geometry" />
        </mxCell>
        <mxCell id="JOjSNyH2Hw5vAPHBL3Yq-29" value="是否游客账号" style="rhombus;whiteSpace=wrap;html=1;" parent="WIyWlLk6GJQsqaUBKTNV-1" vertex="1">
          <mxGeometry x="474" y="650" width="80" height="80" as="geometry" />
        </mxCell>
        <mxCell id="JOjSNyH2Hw5vAPHBL3Yq-39" style="edgeStyle=orthogonalEdgeStyle;rounded=0;orthogonalLoop=1;jettySize=auto;html=1;" parent="WIyWlLk6GJQsqaUBKTNV-1" source="JOjSNyH2Hw5vAPHBL3Yq-35" target="JOjSNyH2Hw5vAPHBL3Yq-38" edge="1">
          <mxGeometry relative="1" as="geometry" />
        </mxCell>
        <mxCell id="JOjSNyH2Hw5vAPHBL3Yq-41" value="失败" style="edgeLabel;html=1;align=center;verticalAlign=middle;resizable=0;points=[];" parent="JOjSNyH2Hw5vAPHBL3Yq-39" vertex="1" connectable="0">
          <mxGeometry x="0.2336" y="-2" relative="1" as="geometry">
            <mxPoint x="-13" y="-2" as="offset" />
          </mxGeometry>
        </mxCell>
        <mxCell id="JOjSNyH2Hw5vAPHBL3Yq-59" style="edgeStyle=orthogonalEdgeStyle;rounded=0;orthogonalLoop=1;jettySize=auto;html=1;exitX=0.5;exitY=1;exitDx=0;exitDy=0;" parent="WIyWlLk6GJQsqaUBKTNV-1" source="JOjSNyH2Hw5vAPHBL3Yq-35" target="JOjSNyH2Hw5vAPHBL3Yq-58" edge="1">
          <mxGeometry relative="1" as="geometry" />
        </mxCell>
        <mxCell id="JOjSNyH2Hw5vAPHBL3Yq-35" value="进行绑定" style="rhombus;whiteSpace=wrap;html=1;" parent="WIyWlLk6GJQsqaUBKTNV-1" vertex="1">
          <mxGeometry x="474" y="870" width="80" height="80" as="geometry" />
        </mxCell>
        <mxCell id="JOjSNyH2Hw5vAPHBL3Yq-38" value="结束&lt;br&gt;提示用户无法绑定，请用其他账号或者联系客服" style="rounded=1;whiteSpace=wrap;html=1;" parent="WIyWlLk6GJQsqaUBKTNV-1" vertex="1">
          <mxGeometry x="180" y="875" width="120" height="70" as="geometry" />
        </mxCell>
        <mxCell id="JOjSNyH2Hw5vAPHBL3Yq-46" style="edgeStyle=orthogonalEdgeStyle;rounded=0;orthogonalLoop=1;jettySize=auto;html=1;entryX=0.5;entryY=0;entryDx=0;entryDy=0;" parent="WIyWlLk6GJQsqaUBKTNV-1" source="JOjSNyH2Hw5vAPHBL3Yq-42" target="JOjSNyH2Hw5vAPHBL3Yq-48" edge="1">
          <mxGeometry relative="1" as="geometry">
            <mxPoint x="-90" y="490" as="targetPoint" />
          </mxGeometry>
        </mxCell>
        <mxCell id="JOjSNyH2Hw5vAPHBL3Yq-47" value="成功" style="edgeLabel;html=1;align=center;verticalAlign=middle;resizable=0;points=[];" parent="JOjSNyH2Hw5vAPHBL3Yq-46" vertex="1" connectable="0">
          <mxGeometry x="-0.2667" y="1" relative="1" as="geometry">
            <mxPoint as="offset" />
          </mxGeometry>
        </mxCell>
        <mxCell id="JOjSNyH2Hw5vAPHBL3Yq-54" value="失败" style="edgeStyle=orthogonalEdgeStyle;rounded=0;orthogonalLoop=1;jettySize=auto;html=1;entryX=0.5;entryY=0;entryDx=0;entryDy=0;" parent="WIyWlLk6GJQsqaUBKTNV-1" source="JOjSNyH2Hw5vAPHBL3Yq-42" target="JOjSNyH2Hw5vAPHBL3Yq-53" edge="1">
          <mxGeometry relative="1" as="geometry" />
        </mxCell>
        <mxCell id="JOjSNyH2Hw5vAPHBL3Yq-42" value="自动登录&lt;br&gt;成功" style="rhombus;whiteSpace=wrap;html=1;" parent="WIyWlLk6GJQsqaUBKTNV-1" vertex="1">
          <mxGeometry x="60" width="80" height="80" as="geometry" />
        </mxCell>
        <mxCell id="JOjSNyH2Hw5vAPHBL3Yq-72" style="edgeStyle=orthogonalEdgeStyle;rounded=0;orthogonalLoop=1;jettySize=auto;html=1;entryX=0;entryY=0.5;entryDx=0;entryDy=0;" parent="WIyWlLk6GJQsqaUBKTNV-1" source="JOjSNyH2Hw5vAPHBL3Yq-48" target="JOjSNyH2Hw5vAPHBL3Yq-26" edge="1">
          <mxGeometry relative="1" as="geometry">
            <Array as="points">
              <mxPoint x="-90" y="603" />
              <mxPoint x="212" y="603" />
            </Array>
          </mxGeometry>
        </mxCell>
        <mxCell id="JOjSNyH2Hw5vAPHBL3Yq-48" value="最后一次账号&lt;br&gt;登录成功" style="rounded=1;whiteSpace=wrap;html=1;fontSize=12;glass=0;strokeWidth=1;shadow=0;" parent="WIyWlLk6GJQsqaUBKTNV-1" vertex="1">
          <mxGeometry x="-150" y="480" width="120" height="40" as="geometry" />
        </mxCell>
        <mxCell id="JOjSNyH2Hw5vAPHBL3Yq-52" style="edgeStyle=orthogonalEdgeStyle;rounded=0;orthogonalLoop=1;jettySize=auto;html=1;entryX=0.5;entryY=0;entryDx=0;entryDy=0;" parent="WIyWlLk6GJQsqaUBKTNV-1" source="JOjSNyH2Hw5vAPHBL3Yq-50" target="JOjSNyH2Hw5vAPHBL3Yq-42" edge="1">
          <mxGeometry relative="1" as="geometry" />
        </mxCell>
        <mxCell id="JOjSNyH2Hw5vAPHBL3Yq-50" value="调用自动登录" style="rounded=0;whiteSpace=wrap;html=1;" parent="WIyWlLk6GJQsqaUBKTNV-1" vertex="1">
          <mxGeometry x="40" y="-60" width="120" height="40" as="geometry" />
        </mxCell>
        <mxCell id="JOjSNyH2Hw5vAPHBL3Yq-55" style="edgeStyle=orthogonalEdgeStyle;rounded=0;orthogonalLoop=1;jettySize=auto;html=1;entryX=0.5;entryY=0;entryDx=0;entryDy=0;" parent="WIyWlLk6GJQsqaUBKTNV-1" source="JOjSNyH2Hw5vAPHBL3Yq-53" target="WIyWlLk6GJQsqaUBKTNV-6" edge="1">
          <mxGeometry relative="1" as="geometry" />
        </mxCell>
        <mxCell id="JOjSNyH2Hw5vAPHBL3Yq-53" value="选择登录方式" style="rounded=0;whiteSpace=wrap;html=1;" parent="WIyWlLk6GJQsqaUBKTNV-1" vertex="1">
          <mxGeometry x="40" y="120" width="120" height="40" as="geometry" />
        </mxCell>
        <mxCell id="JOjSNyH2Hw5vAPHBL3Yq-73" style="edgeStyle=orthogonalEdgeStyle;rounded=0;orthogonalLoop=1;jettySize=auto;html=1;entryX=1;entryY=0.5;entryDx=0;entryDy=0;exitX=1;exitY=0.5;exitDx=0;exitDy=0;" parent="WIyWlLk6GJQsqaUBKTNV-1" source="JOjSNyH2Hw5vAPHBL3Yq-58" target="WIyWlLk6GJQsqaUBKTNV-3" edge="1">
          <mxGeometry relative="1" as="geometry">
            <Array as="points">
              <mxPoint x="780" y="1010" />
              <mxPoint x="780" y="-130" />
            </Array>
          </mxGeometry>
        </mxCell>
        <mxCell id="JOjSNyH2Hw5vAPHBL3Yq-58" value="清除游客账号信息&lt;br&gt;清除自动登录信息" style="rounded=0;whiteSpace=wrap;html=1;" parent="WIyWlLk6GJQsqaUBKTNV-1" vertex="1">
          <mxGeometry x="454" y="990" width="120" height="40" as="geometry" />
        </mxCell>
        <mxCell id="JOjSNyH2Hw5vAPHBL3Yq-63" style="edgeStyle=orthogonalEdgeStyle;rounded=0;orthogonalLoop=1;jettySize=auto;html=1;exitX=0.5;exitY=1;exitDx=0;exitDy=0;" parent="WIyWlLk6GJQsqaUBKTNV-1" edge="1">
          <mxGeometry relative="1" as="geometry">
            <mxPoint x="240" y="705" as="sourcePoint" />
            <mxPoint x="240" y="705" as="targetPoint" />
          </mxGeometry>
        </mxCell>
        <mxCell id="JOjSNyH2Hw5vAPHBL3Yq-68" value="授权成功" style="edgeStyle=orthogonalEdgeStyle;rounded=0;orthogonalLoop=1;jettySize=auto;html=1;entryX=0.5;entryY=0;entryDx=0;entryDy=0;" parent="WIyWlLk6GJQsqaUBKTNV-1" source="JOjSNyH2Hw5vAPHBL3Yq-65" target="JOjSNyH2Hw5vAPHBL3Yq-35" edge="1">
          <mxGeometry relative="1" as="geometry" />
        </mxCell>
        <mxCell id="JOjSNyH2Hw5vAPHBL3Yq-69" style="edgeStyle=orthogonalEdgeStyle;rounded=0;orthogonalLoop=1;jettySize=auto;html=1;exitX=0;exitY=0.5;exitDx=0;exitDy=0;entryX=0.5;entryY=0;entryDx=0;entryDy=0;" parent="WIyWlLk6GJQsqaUBKTNV-1" source="JOjSNyH2Hw5vAPHBL3Yq-65" target="JOjSNyH2Hw5vAPHBL3Yq-38" edge="1">
          <mxGeometry relative="1" as="geometry" />
        </mxCell>
        <mxCell id="JOjSNyH2Hw5vAPHBL3Yq-70" value="授权失败" style="edgeLabel;html=1;align=center;verticalAlign=middle;resizable=0;points=[];" parent="JOjSNyH2Hw5vAPHBL3Yq-69" vertex="1" connectable="0">
          <mxGeometry x="-0.4089" y="-1" relative="1" as="geometry">
            <mxPoint as="offset" />
          </mxGeometry>
        </mxCell>
        <mxCell id="JOjSNyH2Hw5vAPHBL3Yq-65" value="&lt;span&gt;拉起第三方授权&lt;/span&gt;" style="rhombus;whiteSpace=wrap;html=1;" parent="WIyWlLk6GJQsqaUBKTNV-1" vertex="1">
          <mxGeometry x="474" y="760" width="80" height="70" as="geometry" />
        </mxCell>
        <mxCell id="KKXeev9WF8frhIr5QQyk-5" style="edgeStyle=orthogonalEdgeStyle;rounded=0;orthogonalLoop=1;jettySize=auto;html=1;entryX=0.5;entryY=0;entryDx=0;entryDy=0;startArrow=none;" parent="WIyWlLk6GJQsqaUBKTNV-1" source="KKXeev9WF8frhIr5QQyk-6" target="KKXeev9WF8frhIr5QQyk-1" edge="1">
          <mxGeometry relative="1" as="geometry">
            <Array as="points">
              <mxPoint x="-590" y="-920" />
            </Array>
          </mxGeometry>
        </mxCell>
        <mxCell id="KKXeev9WF8frhIr5QQyk-0" value="APK&lt;br&gt;本地SHA1" style="rounded=0;whiteSpace=wrap;html=1;" parent="WIyWlLk6GJQsqaUBKTNV-1" vertex="1">
          <mxGeometry x="-650" y="-1080" width="120" height="60" as="geometry" />
        </mxCell>
        <mxCell id="KKXeev9WF8frhIr5QQyk-1" value="手机" style="rounded=0;whiteSpace=wrap;html=1;" parent="WIyWlLk6GJQsqaUBKTNV-1" vertex="1">
          <mxGeometry x="-650" y="-830" width="120" height="60" as="geometry" />
        </mxCell>
        <mxCell id="KKXeev9WF8frhIr5QQyk-9" style="edgeStyle=orthogonalEdgeStyle;rounded=0;orthogonalLoop=1;jettySize=auto;html=1;" parent="WIyWlLk6GJQsqaUBKTNV-1" source="KKXeev9WF8frhIr5QQyk-2" target="KKXeev9WF8frhIr5QQyk-3" edge="1">
          <mxGeometry relative="1" as="geometry" />
        </mxCell>
        <mxCell id="KKXeev9WF8frhIr5QQyk-2" value="aab" style="rounded=0;whiteSpace=wrap;html=1;" parent="WIyWlLk6GJQsqaUBKTNV-1" vertex="1">
          <mxGeometry x="-230" y="-1080" width="120" height="60" as="geometry" />
        </mxCell>
        <mxCell id="KKXeev9WF8frhIr5QQyk-8" style="edgeStyle=orthogonalEdgeStyle;rounded=0;orthogonalLoop=1;jettySize=auto;html=1;" parent="WIyWlLk6GJQsqaUBKTNV-1" source="KKXeev9WF8frhIr5QQyk-3" target="KKXeev9WF8frhIr5QQyk-1" edge="1">
          <mxGeometry relative="1" as="geometry" />
        </mxCell>
        <mxCell id="KKXeev9WF8frhIr5QQyk-3" value="google play下载包&lt;br&gt;google SHA1" style="rounded=0;whiteSpace=wrap;html=1;" parent="WIyWlLk6GJQsqaUBKTNV-1" vertex="1">
          <mxGeometry x="-230" y="-830" width="120" height="60" as="geometry" />
        </mxCell>
        <mxCell id="KKXeev9WF8frhIr5QQyk-6" value="安装" style="text;html=1;align=center;verticalAlign=middle;resizable=0;points=[];autosize=1;strokeColor=none;fillColor=none;" parent="WIyWlLk6GJQsqaUBKTNV-1" vertex="1">
          <mxGeometry x="-610" y="-940" width="40" height="20" as="geometry" />
        </mxCell>
        <mxCell id="KKXeev9WF8frhIr5QQyk-7" value="" style="edgeStyle=orthogonalEdgeStyle;rounded=0;orthogonalLoop=1;jettySize=auto;html=1;entryX=0.5;entryY=0;entryDx=0;entryDy=0;endArrow=none;" parent="WIyWlLk6GJQsqaUBKTNV-1" source="KKXeev9WF8frhIr5QQyk-0" target="KKXeev9WF8frhIr5QQyk-6" edge="1">
          <mxGeometry relative="1" as="geometry">
            <mxPoint x="-590" y="-1020" as="sourcePoint" />
            <mxPoint x="-590" y="-830" as="targetPoint" />
            <Array as="points">
              <mxPoint x="-590" y="-920" />
            </Array>
          </mxGeometry>
        </mxCell>
        <mxCell id="KKXeev9WF8frhIr5QQyk-10" value="google登录需要&lt;br&gt;参数&lt;br&gt;包名&lt;br&gt;SHA1" style="rounded=0;whiteSpace=wrap;html=1;" parent="WIyWlLk6GJQsqaUBKTNV-1" vertex="1">
          <mxGeometry x="-530" y="-1080" width="120" height="60" as="geometry" />
        </mxCell>
        <mxCell id="KKXeev9WF8frhIr5QQyk-11" value="google登录需要&lt;br&gt;参数&lt;br&gt;包名&lt;br&gt;SHA1" style="rounded=0;whiteSpace=wrap;html=1;" parent="WIyWlLk6GJQsqaUBKTNV-1" vertex="1">
          <mxGeometry x="-110" y="-830" width="120" height="60" as="geometry" />
        </mxCell>
        <mxCell id="KKXeev9WF8frhIr5QQyk-12" value="参数就是&amp;nbsp;OAuth 2.0 客户端 ID&lt;br&gt;每个专案限制36个" style="text;html=1;strokeColor=none;fillColor=none;align=center;verticalAlign=middle;whiteSpace=wrap;rounded=0;" parent="WIyWlLk6GJQsqaUBKTNV-1" vertex="1">
          <mxGeometry x="-540" y="-990" width="210" height="20" as="geometry" />
        </mxCell>
        <mxCell id="KKXeev9WF8frhIr5QQyk-13" value="&lt;span&gt;本地SHA1&amp;nbsp; 和&amp;nbsp;&amp;nbsp;&lt;/span&gt;&lt;span&gt;google SHA1 不一样&lt;br&gt;包名或者SHA1不同情况下，需要生成一个新的参数&lt;br&gt;&lt;/span&gt;" style="text;html=1;align=center;verticalAlign=middle;resizable=0;points=[];autosize=1;strokeColor=none;fillColor=none;" parent="WIyWlLk6GJQsqaUBKTNV-1" vertex="1">
          <mxGeometry x="-410" y="-740" width="290" height="30" as="geometry" />
        </mxCell>
        <mxCell id="C141bJPONEXLKHuDQMLV-1" style="edgeStyle=orthogonalEdgeStyle;rounded=0;orthogonalLoop=1;jettySize=auto;html=1;entryX=0.5;entryY=0;entryDx=0;entryDy=0;startArrow=none;" parent="WIyWlLk6GJQsqaUBKTNV-1" source="C141bJPONEXLKHuDQMLV-8" target="C141bJPONEXLKHuDQMLV-3" edge="1">
          <mxGeometry relative="1" as="geometry">
            <Array as="points">
              <mxPoint x="-590" y="-450" />
            </Array>
          </mxGeometry>
        </mxCell>
        <mxCell id="C141bJPONEXLKHuDQMLV-2" value="APK&lt;br&gt;本地SHA1" style="rounded=0;whiteSpace=wrap;html=1;" parent="WIyWlLk6GJQsqaUBKTNV-1" vertex="1">
          <mxGeometry x="-650" y="-610" width="120" height="60" as="geometry" />
        </mxCell>
        <mxCell id="C141bJPONEXLKHuDQMLV-3" value="手机" style="rounded=0;whiteSpace=wrap;html=1;" parent="WIyWlLk6GJQsqaUBKTNV-1" vertex="1">
          <mxGeometry x="-650" y="-360" width="120" height="60" as="geometry" />
        </mxCell>
        <mxCell id="C141bJPONEXLKHuDQMLV-4" style="edgeStyle=orthogonalEdgeStyle;rounded=0;orthogonalLoop=1;jettySize=auto;html=1;" parent="WIyWlLk6GJQsqaUBKTNV-1" source="C141bJPONEXLKHuDQMLV-5" target="C141bJPONEXLKHuDQMLV-7" edge="1">
          <mxGeometry relative="1" as="geometry" />
        </mxCell>
        <mxCell id="C141bJPONEXLKHuDQMLV-5" value="aab" style="rounded=0;whiteSpace=wrap;html=1;" parent="WIyWlLk6GJQsqaUBKTNV-1" vertex="1">
          <mxGeometry x="-230" y="-610" width="120" height="60" as="geometry" />
        </mxCell>
        <mxCell id="C141bJPONEXLKHuDQMLV-6" style="edgeStyle=orthogonalEdgeStyle;rounded=0;orthogonalLoop=1;jettySize=auto;html=1;" parent="WIyWlLk6GJQsqaUBKTNV-1" source="C141bJPONEXLKHuDQMLV-7" target="C141bJPONEXLKHuDQMLV-3" edge="1">
          <mxGeometry relative="1" as="geometry" />
        </mxCell>
        <mxCell id="C141bJPONEXLKHuDQMLV-7" value="google play下载包&lt;br&gt;google SHA1" style="rounded=0;whiteSpace=wrap;html=1;" parent="WIyWlLk6GJQsqaUBKTNV-1" vertex="1">
          <mxGeometry x="-230" y="-360" width="120" height="60" as="geometry" />
        </mxCell>
        <mxCell id="C141bJPONEXLKHuDQMLV-8" value="安装" style="text;html=1;align=center;verticalAlign=middle;resizable=0;points=[];autosize=1;strokeColor=none;fillColor=none;" parent="WIyWlLk6GJQsqaUBKTNV-1" vertex="1">
          <mxGeometry x="-610" y="-470" width="40" height="20" as="geometry" />
        </mxCell>
        <mxCell id="C141bJPONEXLKHuDQMLV-9" value="" style="edgeStyle=orthogonalEdgeStyle;rounded=0;orthogonalLoop=1;jettySize=auto;html=1;entryX=0.5;entryY=0;entryDx=0;entryDy=0;endArrow=none;" parent="WIyWlLk6GJQsqaUBKTNV-1" source="C141bJPONEXLKHuDQMLV-2" target="C141bJPONEXLKHuDQMLV-8" edge="1">
          <mxGeometry relative="1" as="geometry">
            <mxPoint x="-590" y="-550" as="sourcePoint" />
            <mxPoint x="-590" y="-360" as="targetPoint" />
            <Array as="points">
              <mxPoint x="-590" y="-450" />
            </Array>
          </mxGeometry>
        </mxCell>
        <mxCell id="C141bJPONEXLKHuDQMLV-10" value="facebook登录需要&lt;br&gt;参数&lt;br&gt;包名&lt;br&gt;SHA1" style="rounded=0;whiteSpace=wrap;html=1;" parent="WIyWlLk6GJQsqaUBKTNV-1" vertex="1">
          <mxGeometry x="-530" y="-610" width="120" height="60" as="geometry" />
        </mxCell>
        <mxCell id="C141bJPONEXLKHuDQMLV-11" value="facebook登录需要&lt;br&gt;参数&lt;br&gt;包名&lt;br&gt;SHA1" style="rounded=0;whiteSpace=wrap;html=1;" parent="WIyWlLk6GJQsqaUBKTNV-1" vertex="1">
          <mxGeometry x="-110" y="-360" width="120" height="60" as="geometry" />
        </mxCell>
        <mxCell id="C141bJPONEXLKHuDQMLV-13" value="&lt;span&gt;本地SHA1&amp;nbsp; 和&amp;nbsp;&amp;nbsp;&lt;/span&gt;&lt;span&gt;google SHA1 不一样&lt;br&gt;包名或者SHA1不同情况下，需要生成一个新的参数&lt;br&gt;&lt;/span&gt;" style="text;html=1;align=center;verticalAlign=middle;resizable=0;points=[];autosize=1;strokeColor=none;fillColor=none;" parent="WIyWlLk6GJQsqaUBKTNV-1" vertex="1">
          <mxGeometry x="-410" y="-270" width="290" height="30" as="geometry" />
        </mxCell>
        <mxCell id="C141bJPONEXLKHuDQMLV-14" value="游戏客户端" style="shape=umlLifeline;perimeter=lifelinePerimeter;whiteSpace=wrap;html=1;container=1;collapsible=0;recursiveResize=0;outlineConnect=0;" parent="WIyWlLk6GJQsqaUBKTNV-1" vertex="1">
          <mxGeometry x="-1290" y="-30" width="100" height="880" as="geometry" />
        </mxCell>
        <mxCell id="C141bJPONEXLKHuDQMLV-21" value="" style="html=1;points=[];perimeter=orthogonalPerimeter;" parent="C141bJPONEXLKHuDQMLV-14" vertex="1">
          <mxGeometry x="45" y="60" width="10" height="350" as="geometry" />
        </mxCell>
        <mxCell id="C141bJPONEXLKHuDQMLV-55" value="" style="html=1;points=[];perimeter=orthogonalPerimeter;" parent="C141bJPONEXLKHuDQMLV-14" vertex="1">
          <mxGeometry x="45" y="533" width="10" height="100" as="geometry" />
        </mxCell>
        <mxCell id="C141bJPONEXLKHuDQMLV-89" value="" style="html=1;points=[];perimeter=orthogonalPerimeter;" parent="C141bJPONEXLKHuDQMLV-14" vertex="1">
          <mxGeometry x="45" y="813" width="10" height="80" as="geometry" />
        </mxCell>
        <mxCell id="C141bJPONEXLKHuDQMLV-111" value="" style="html=1;points=[];perimeter=orthogonalPerimeter;" parent="C141bJPONEXLKHuDQMLV-14" vertex="1">
          <mxGeometry x="45" y="470" width="10" height="30" as="geometry" />
        </mxCell>
        <mxCell id="C141bJPONEXLKHuDQMLV-15" value="融合服务端" style="shape=umlLifeline;perimeter=lifelinePerimeter;whiteSpace=wrap;html=1;container=1;collapsible=0;recursiveResize=0;outlineConnect=0;" parent="WIyWlLk6GJQsqaUBKTNV-1" vertex="1">
          <mxGeometry x="-550" y="-30" width="100" height="880" as="geometry" />
        </mxCell>
        <mxCell id="C141bJPONEXLKHuDQMLV-27" value="" style="html=1;points=[];perimeter=orthogonalPerimeter;" parent="C141bJPONEXLKHuDQMLV-15" vertex="1">
          <mxGeometry x="45" y="60" width="10" height="290" as="geometry" />
        </mxCell>
        <mxCell id="C141bJPONEXLKHuDQMLV-59" value="" style="html=1;points=[];perimeter=orthogonalPerimeter;" parent="C141bJPONEXLKHuDQMLV-15" vertex="1">
          <mxGeometry x="45" y="605" width="10" height="80" as="geometry" />
        </mxCell>
        <mxCell id="C141bJPONEXLKHuDQMLV-81" value="" style="html=1;points=[];perimeter=orthogonalPerimeter;" parent="C141bJPONEXLKHuDQMLV-15" vertex="1">
          <mxGeometry x="45" y="763" width="10" height="80" as="geometry" />
        </mxCell>
        <mxCell id="C141bJPONEXLKHuDQMLV-103" value="" style="html=1;points=[];perimeter=orthogonalPerimeter;" parent="C141bJPONEXLKHuDQMLV-15" vertex="1">
          <mxGeometry x="45" y="400" width="10" height="80" as="geometry" />
        </mxCell>
        <mxCell id="C141bJPONEXLKHuDQMLV-16" value="渠道" style="shape=umlLifeline;perimeter=lifelinePerimeter;whiteSpace=wrap;html=1;container=1;collapsible=0;recursiveResize=0;outlineConnect=0;" parent="WIyWlLk6GJQsqaUBKTNV-1" vertex="1">
          <mxGeometry x="-910" y="-30" width="100" height="880" as="geometry" />
        </mxCell>
        <mxCell id="C141bJPONEXLKHuDQMLV-24" value="" style="html=1;points=[];perimeter=orthogonalPerimeter;" parent="C141bJPONEXLKHuDQMLV-16" vertex="1">
          <mxGeometry x="45" y="60" width="10" height="80" as="geometry" />
        </mxCell>
        <mxCell id="C141bJPONEXLKHuDQMLV-57" value="" style="html=1;points=[];perimeter=orthogonalPerimeter;" parent="C141bJPONEXLKHuDQMLV-16" vertex="1">
          <mxGeometry x="45" y="665" width="10" height="128" as="geometry" />
        </mxCell>
        <mxCell id="C141bJPONEXLKHuDQMLV-76" style="edgeStyle=orthogonalEdgeStyle;rounded=0;orthogonalLoop=1;jettySize=auto;html=1;entryX=0.1;entryY=0.875;entryDx=0;entryDy=0;entryPerimeter=0;" parent="C141bJPONEXLKHuDQMLV-16" source="C141bJPONEXLKHuDQMLV-57" target="C141bJPONEXLKHuDQMLV-57" edge="1">
          <mxGeometry relative="1" as="geometry">
            <mxPoint x="40" y="783" as="targetPoint" />
            <Array as="points">
              <mxPoint x="-20" y="743" />
              <mxPoint x="-20" y="779" />
              <mxPoint x="40" y="779" />
              <mxPoint x="40" y="777" />
            </Array>
          </mxGeometry>
        </mxCell>
        <mxCell id="C141bJPONEXLKHuDQMLV-122" value="进行支付" style="edgeLabel;html=1;align=center;verticalAlign=middle;resizable=0;points=[];" parent="C141bJPONEXLKHuDQMLV-76" vertex="1" connectable="0">
          <mxGeometry x="-0.1361" relative="1" as="geometry">
            <mxPoint y="9" as="offset" />
          </mxGeometry>
        </mxCell>
        <mxCell id="C141bJPONEXLKHuDQMLV-17" value="融合（U8）客户端" style="shape=umlLifeline;perimeter=lifelinePerimeter;whiteSpace=wrap;html=1;container=1;collapsible=0;recursiveResize=0;outlineConnect=0;" parent="WIyWlLk6GJQsqaUBKTNV-1" vertex="1">
          <mxGeometry x="-1100" y="-30" width="90" height="880" as="geometry" />
        </mxCell>
        <mxCell id="C141bJPONEXLKHuDQMLV-22" value="" style="html=1;points=[];perimeter=orthogonalPerimeter;" parent="C141bJPONEXLKHuDQMLV-17" vertex="1">
          <mxGeometry x="45" y="60" width="10" height="300" as="geometry" />
        </mxCell>
        <mxCell id="C141bJPONEXLKHuDQMLV-56" value="" style="html=1;points=[];perimeter=orthogonalPerimeter;" parent="C141bJPONEXLKHuDQMLV-17" vertex="1">
          <mxGeometry x="40" y="605" width="10" height="80" as="geometry" />
        </mxCell>
        <mxCell id="C141bJPONEXLKHuDQMLV-18" value="游戏服务端" style="shape=umlLifeline;perimeter=lifelinePerimeter;whiteSpace=wrap;html=1;container=1;collapsible=0;recursiveResize=0;outlineConnect=0;" parent="WIyWlLk6GJQsqaUBKTNV-1" vertex="1">
          <mxGeometry x="-370" y="-30" width="100" height="880" as="geometry" />
        </mxCell>
        <mxCell id="C141bJPONEXLKHuDQMLV-28" value="" style="html=1;points=[];perimeter=orthogonalPerimeter;" parent="C141bJPONEXLKHuDQMLV-18" vertex="1">
          <mxGeometry x="45" y="60" width="10" height="80" as="geometry" />
        </mxCell>
        <mxCell id="C141bJPONEXLKHuDQMLV-51" value="" style="html=1;points=[];perimeter=orthogonalPerimeter;" parent="C141bJPONEXLKHuDQMLV-18" vertex="1">
          <mxGeometry x="45" y="340" width="10" height="110" as="geometry" />
        </mxCell>
        <mxCell id="C141bJPONEXLKHuDQMLV-60" value="" style="html=1;points=[];perimeter=orthogonalPerimeter;" parent="C141bJPONEXLKHuDQMLV-18" vertex="1">
          <mxGeometry x="45" y="533" width="10" height="80" as="geometry" />
        </mxCell>
        <mxCell id="C141bJPONEXLKHuDQMLV-83" value="" style="html=1;points=[];perimeter=orthogonalPerimeter;" parent="C141bJPONEXLKHuDQMLV-18" vertex="1">
          <mxGeometry x="45" y="763" width="10" height="120" as="geometry" />
        </mxCell>
        <mxCell id="C141bJPONEXLKHuDQMLV-110" value="" style="html=1;points=[];perimeter=orthogonalPerimeter;" parent="C141bJPONEXLKHuDQMLV-18" vertex="1">
          <mxGeometry x="45" y="480" width="10" height="30" as="geometry" />
        </mxCell>
        <mxCell id="C141bJPONEXLKHuDQMLV-19" value="渠道服务端" style="shape=umlLifeline;perimeter=lifelinePerimeter;whiteSpace=wrap;html=1;container=1;collapsible=0;recursiveResize=0;outlineConnect=0;" parent="WIyWlLk6GJQsqaUBKTNV-1" vertex="1">
          <mxGeometry x="-730" y="-30" width="90" height="880" as="geometry" />
        </mxCell>
        <mxCell id="C141bJPONEXLKHuDQMLV-26" value="" style="html=1;points=[];perimeter=orthogonalPerimeter;" parent="C141bJPONEXLKHuDQMLV-19" vertex="1">
          <mxGeometry x="45" y="60" width="10" height="80" as="geometry" />
        </mxCell>
        <mxCell id="C141bJPONEXLKHuDQMLV-38" value="" style="html=1;points=[];perimeter=orthogonalPerimeter;" parent="C141bJPONEXLKHuDQMLV-19" vertex="1">
          <mxGeometry x="45" y="190" width="10" height="80" as="geometry" />
        </mxCell>
        <mxCell id="C141bJPONEXLKHuDQMLV-58" value="" style="html=1;points=[];perimeter=orthogonalPerimeter;" parent="C141bJPONEXLKHuDQMLV-19" vertex="1">
          <mxGeometry x="40" y="663" width="10" height="80" as="geometry" />
        </mxCell>
        <mxCell id="C141bJPONEXLKHuDQMLV-78" value="" style="html=1;points=[];perimeter=orthogonalPerimeter;" parent="C141bJPONEXLKHuDQMLV-19" vertex="1">
          <mxGeometry x="40" y="763" width="10" height="80" as="geometry" />
        </mxCell>
        <mxCell id="C141bJPONEXLKHuDQMLV-23" style="edgeStyle=orthogonalEdgeStyle;rounded=0;orthogonalLoop=1;jettySize=auto;html=1;" parent="WIyWlLk6GJQsqaUBKTNV-1" source="C141bJPONEXLKHuDQMLV-21" target="C141bJPONEXLKHuDQMLV-22" edge="1">
          <mxGeometry relative="1" as="geometry">
            <Array as="points">
              <mxPoint x="-1110" y="40" />
              <mxPoint x="-1110" y="40" />
            </Array>
          </mxGeometry>
        </mxCell>
        <mxCell id="C141bJPONEXLKHuDQMLV-93" value="登录" style="edgeLabel;html=1;align=center;verticalAlign=middle;resizable=0;points=[];" parent="C141bJPONEXLKHuDQMLV-23" vertex="1" connectable="0">
          <mxGeometry x="0.1778" y="1" relative="1" as="geometry">
            <mxPoint x="-21" y="1" as="offset" />
          </mxGeometry>
        </mxCell>
        <mxCell id="C141bJPONEXLKHuDQMLV-25" style="edgeStyle=orthogonalEdgeStyle;rounded=0;orthogonalLoop=1;jettySize=auto;html=1;" parent="WIyWlLk6GJQsqaUBKTNV-1" source="C141bJPONEXLKHuDQMLV-22" target="C141bJPONEXLKHuDQMLV-24" edge="1">
          <mxGeometry relative="1" as="geometry">
            <Array as="points">
              <mxPoint x="-930" y="40" />
              <mxPoint x="-930" y="40" />
            </Array>
          </mxGeometry>
        </mxCell>
        <mxCell id="C141bJPONEXLKHuDQMLV-29" style="edgeStyle=orthogonalEdgeStyle;rounded=0;orthogonalLoop=1;jettySize=auto;html=1;" parent="WIyWlLk6GJQsqaUBKTNV-1" source="C141bJPONEXLKHuDQMLV-24" target="C141bJPONEXLKHuDQMLV-26" edge="1">
          <mxGeometry relative="1" as="geometry">
            <Array as="points">
              <mxPoint x="-810" y="40" />
              <mxPoint x="-810" y="40" />
            </Array>
          </mxGeometry>
        </mxCell>
        <mxCell id="C141bJPONEXLKHuDQMLV-36" style="edgeStyle=orthogonalEdgeStyle;rounded=0;orthogonalLoop=1;jettySize=auto;html=1;entryX=1.1;entryY=0.5;entryDx=0;entryDy=0;entryPerimeter=0;" parent="WIyWlLk6GJQsqaUBKTNV-1" source="C141bJPONEXLKHuDQMLV-26" target="C141bJPONEXLKHuDQMLV-24" edge="1">
          <mxGeometry relative="1" as="geometry" />
        </mxCell>
        <mxCell id="C141bJPONEXLKHuDQMLV-96" value="登录成功" style="edgeLabel;html=1;align=center;verticalAlign=middle;resizable=0;points=[];" parent="C141bJPONEXLKHuDQMLV-36" vertex="1" connectable="0">
          <mxGeometry x="-0.1124" y="2" relative="1" as="geometry">
            <mxPoint x="-10" y="-2" as="offset" />
          </mxGeometry>
        </mxCell>
        <mxCell id="C141bJPONEXLKHuDQMLV-40" style="edgeStyle=orthogonalEdgeStyle;rounded=0;orthogonalLoop=1;jettySize=auto;html=1;entryX=0.9;entryY=0.313;entryDx=0;entryDy=0;entryPerimeter=0;" parent="WIyWlLk6GJQsqaUBKTNV-1" source="C141bJPONEXLKHuDQMLV-27" target="C141bJPONEXLKHuDQMLV-38" edge="1">
          <mxGeometry relative="1" as="geometry">
            <Array as="points">
              <mxPoint x="-550" y="185" />
              <mxPoint x="-550" y="185" />
            </Array>
          </mxGeometry>
        </mxCell>
        <mxCell id="C141bJPONEXLKHuDQMLV-99" value="渠道验证" style="edgeLabel;html=1;align=center;verticalAlign=middle;resizable=0;points=[];" parent="C141bJPONEXLKHuDQMLV-40" vertex="1" connectable="0">
          <mxGeometry x="0.1579" y="3" relative="1" as="geometry">
            <mxPoint as="offset" />
          </mxGeometry>
        </mxCell>
        <mxCell id="C141bJPONEXLKHuDQMLV-47" style="edgeStyle=orthogonalEdgeStyle;rounded=0;orthogonalLoop=1;jettySize=auto;html=1;entryX=0.9;entryY=0.746;entryDx=0;entryDy=0;entryPerimeter=0;" parent="WIyWlLk6GJQsqaUBKTNV-1" source="C141bJPONEXLKHuDQMLV-22" target="C141bJPONEXLKHuDQMLV-21" edge="1">
          <mxGeometry relative="1" as="geometry">
            <Array as="points">
              <mxPoint x="-1140" y="291" />
              <mxPoint x="-1140" y="291" />
            </Array>
          </mxGeometry>
        </mxCell>
        <mxCell id="C141bJPONEXLKHuDQMLV-48" style="edgeStyle=orthogonalEdgeStyle;rounded=0;orthogonalLoop=1;jettySize=auto;html=1;entryX=1.3;entryY=0.83;entryDx=0;entryDy=0;entryPerimeter=0;" parent="WIyWlLk6GJQsqaUBKTNV-1" source="C141bJPONEXLKHuDQMLV-27" target="C141bJPONEXLKHuDQMLV-22" edge="1">
          <mxGeometry relative="1" as="geometry">
            <Array as="points">
              <mxPoint x="-700" y="279" />
              <mxPoint x="-700" y="279" />
            </Array>
          </mxGeometry>
        </mxCell>
        <mxCell id="C141bJPONEXLKHuDQMLV-101" value="返回userid等信息" style="edgeLabel;html=1;align=center;verticalAlign=middle;resizable=0;points=[];" parent="C141bJPONEXLKHuDQMLV-48" vertex="1" connectable="0">
          <mxGeometry x="0.0466" y="-1" relative="1" as="geometry">
            <mxPoint as="offset" />
          </mxGeometry>
        </mxCell>
        <mxCell id="C141bJPONEXLKHuDQMLV-49" style="edgeStyle=orthogonalEdgeStyle;rounded=0;orthogonalLoop=1;jettySize=auto;html=1;entryX=-0.4;entryY=0.331;entryDx=0;entryDy=0;entryPerimeter=0;" parent="WIyWlLk6GJQsqaUBKTNV-1" source="C141bJPONEXLKHuDQMLV-22" target="C141bJPONEXLKHuDQMLV-27" edge="1">
          <mxGeometry relative="1" as="geometry">
            <Array as="points">
              <mxPoint x="-880" y="126" />
              <mxPoint x="-880" y="126" />
            </Array>
          </mxGeometry>
        </mxCell>
        <mxCell id="C141bJPONEXLKHuDQMLV-98" value="获取token" style="edgeLabel;html=1;align=center;verticalAlign=middle;resizable=0;points=[];" parent="C141bJPONEXLKHuDQMLV-49" vertex="1" connectable="0">
          <mxGeometry x="-0.1455" y="3" relative="1" as="geometry">
            <mxPoint as="offset" />
          </mxGeometry>
        </mxCell>
        <mxCell id="C141bJPONEXLKHuDQMLV-50" style="edgeStyle=orthogonalEdgeStyle;rounded=0;orthogonalLoop=1;jettySize=auto;html=1;entryX=-0.2;entryY=0.669;entryDx=0;entryDy=0;entryPerimeter=0;" parent="WIyWlLk6GJQsqaUBKTNV-1" source="C141bJPONEXLKHuDQMLV-38" target="C141bJPONEXLKHuDQMLV-27" edge="1">
          <mxGeometry relative="1" as="geometry">
            <Array as="points">
              <mxPoint x="-640" y="224" />
              <mxPoint x="-640" y="224" />
            </Array>
          </mxGeometry>
        </mxCell>
        <mxCell id="C141bJPONEXLKHuDQMLV-100" value="验证成功" style="edgeLabel;html=1;align=center;verticalAlign=middle;resizable=0;points=[];" parent="C141bJPONEXLKHuDQMLV-50" vertex="1" connectable="0">
          <mxGeometry x="0.1548" y="1" relative="1" as="geometry">
            <mxPoint as="offset" />
          </mxGeometry>
        </mxCell>
        <mxCell id="C141bJPONEXLKHuDQMLV-52" style="edgeStyle=orthogonalEdgeStyle;rounded=0;orthogonalLoop=1;jettySize=auto;html=1;entryX=1.1;entryY=0.22;entryDx=0;entryDy=0;entryPerimeter=0;" parent="WIyWlLk6GJQsqaUBKTNV-1" source="C141bJPONEXLKHuDQMLV-24" target="C141bJPONEXLKHuDQMLV-22" edge="1">
          <mxGeometry relative="1" as="geometry">
            <Array as="points">
              <mxPoint x="-920" y="96" />
              <mxPoint x="-920" y="96" />
            </Array>
          </mxGeometry>
        </mxCell>
        <mxCell id="C141bJPONEXLKHuDQMLV-53" style="edgeStyle=orthogonalEdgeStyle;rounded=0;orthogonalLoop=1;jettySize=auto;html=1;entryX=0;entryY=0.473;entryDx=0;entryDy=0;entryPerimeter=0;" parent="WIyWlLk6GJQsqaUBKTNV-1" source="C141bJPONEXLKHuDQMLV-21" target="C141bJPONEXLKHuDQMLV-51" edge="1">
          <mxGeometry relative="1" as="geometry">
            <Array as="points">
              <mxPoint x="-970" y="362" />
              <mxPoint x="-970" y="362" />
            </Array>
          </mxGeometry>
        </mxCell>
        <mxCell id="C141bJPONEXLKHuDQMLV-106" value="上传登录信息" style="edgeLabel;html=1;align=center;verticalAlign=middle;resizable=0;points=[];" parent="C141bJPONEXLKHuDQMLV-53" vertex="1" connectable="0">
          <mxGeometry x="-0.0639" y="-4" relative="1" as="geometry">
            <mxPoint as="offset" />
          </mxGeometry>
        </mxCell>
        <mxCell id="C141bJPONEXLKHuDQMLV-61" style="edgeStyle=orthogonalEdgeStyle;rounded=0;orthogonalLoop=1;jettySize=auto;html=1;entryX=-0.4;entryY=0.225;entryDx=0;entryDy=0;entryPerimeter=0;" parent="WIyWlLk6GJQsqaUBKTNV-1" source="C141bJPONEXLKHuDQMLV-55" target="C141bJPONEXLKHuDQMLV-60" edge="1">
          <mxGeometry relative="1" as="geometry">
            <Array as="points">
              <mxPoint x="-1050" y="521" />
              <mxPoint x="-1050" y="521" />
            </Array>
          </mxGeometry>
        </mxCell>
        <mxCell id="C141bJPONEXLKHuDQMLV-114" value="发起支付" style="edgeLabel;html=1;align=center;verticalAlign=middle;resizable=0;points=[];" parent="C141bJPONEXLKHuDQMLV-61" vertex="1" connectable="0">
          <mxGeometry x="-0.064" y="2" relative="1" as="geometry">
            <mxPoint as="offset" />
          </mxGeometry>
        </mxCell>
        <mxCell id="C141bJPONEXLKHuDQMLV-62" style="edgeStyle=orthogonalEdgeStyle;rounded=0;orthogonalLoop=1;jettySize=auto;html=1;" parent="WIyWlLk6GJQsqaUBKTNV-1" source="C141bJPONEXLKHuDQMLV-60" target="C141bJPONEXLKHuDQMLV-55" edge="1">
          <mxGeometry relative="1" as="geometry">
            <Array as="points">
              <mxPoint x="-570" y="553" />
              <mxPoint x="-570" y="553" />
            </Array>
          </mxGeometry>
        </mxCell>
        <mxCell id="C141bJPONEXLKHuDQMLV-115" value="返回订单信息" style="edgeLabel;html=1;align=center;verticalAlign=middle;resizable=0;points=[];" parent="C141bJPONEXLKHuDQMLV-62" vertex="1" connectable="0">
          <mxGeometry x="0.0901" y="3" relative="1" as="geometry">
            <mxPoint as="offset" />
          </mxGeometry>
        </mxCell>
        <mxCell id="C141bJPONEXLKHuDQMLV-64" style="edgeStyle=orthogonalEdgeStyle;rounded=0;orthogonalLoop=1;jettySize=auto;html=1;entryX=-0.1;entryY=0.225;entryDx=0;entryDy=0;entryPerimeter=0;" parent="WIyWlLk6GJQsqaUBKTNV-1" source="C141bJPONEXLKHuDQMLV-55" target="C141bJPONEXLKHuDQMLV-56" edge="1">
          <mxGeometry relative="1" as="geometry">
            <Array as="points">
              <mxPoint x="-1180" y="593" />
              <mxPoint x="-1180" y="593" />
            </Array>
          </mxGeometry>
        </mxCell>
        <mxCell id="C141bJPONEXLKHuDQMLV-116" value="调用支付" style="edgeLabel;html=1;align=center;verticalAlign=middle;resizable=0;points=[];" parent="C141bJPONEXLKHuDQMLV-64" vertex="1" connectable="0">
          <mxGeometry x="0.2644" relative="1" as="geometry">
            <mxPoint as="offset" />
          </mxGeometry>
        </mxCell>
        <mxCell id="C141bJPONEXLKHuDQMLV-65" style="edgeStyle=orthogonalEdgeStyle;rounded=0;orthogonalLoop=1;jettySize=auto;html=1;entryX=-0.1;entryY=0.225;entryDx=0;entryDy=0;entryPerimeter=0;" parent="WIyWlLk6GJQsqaUBKTNV-1" source="C141bJPONEXLKHuDQMLV-56" target="C141bJPONEXLKHuDQMLV-59" edge="1">
          <mxGeometry relative="1" as="geometry">
            <Array as="points">
              <mxPoint x="-970" y="593" />
              <mxPoint x="-970" y="593" />
            </Array>
          </mxGeometry>
        </mxCell>
        <mxCell id="C141bJPONEXLKHuDQMLV-117" value="融合下单" style="edgeLabel;html=1;align=center;verticalAlign=middle;resizable=0;points=[];" parent="C141bJPONEXLKHuDQMLV-65" vertex="1" connectable="0">
          <mxGeometry x="-0.0699" y="2" relative="1" as="geometry">
            <mxPoint as="offset" />
          </mxGeometry>
        </mxCell>
        <mxCell id="C141bJPONEXLKHuDQMLV-66" style="edgeStyle=orthogonalEdgeStyle;rounded=0;orthogonalLoop=1;jettySize=auto;html=1;entryX=1.6;entryY=0.5;entryDx=0;entryDy=0;entryPerimeter=0;exitX=-0.5;exitY=0.5;exitDx=0;exitDy=0;exitPerimeter=0;" parent="WIyWlLk6GJQsqaUBKTNV-1" source="C141bJPONEXLKHuDQMLV-59" target="C141bJPONEXLKHuDQMLV-56" edge="1">
          <mxGeometry relative="1" as="geometry" />
        </mxCell>
        <mxCell id="C141bJPONEXLKHuDQMLV-118" value="返回融合订单信息" style="edgeLabel;html=1;align=center;verticalAlign=middle;resizable=0;points=[];" parent="C141bJPONEXLKHuDQMLV-66" vertex="1" connectable="0">
          <mxGeometry x="0.1161" y="-1" relative="1" as="geometry">
            <mxPoint as="offset" />
          </mxGeometry>
        </mxCell>
        <mxCell id="C141bJPONEXLKHuDQMLV-69" style="edgeStyle=orthogonalEdgeStyle;rounded=0;orthogonalLoop=1;jettySize=auto;html=1;entryX=-0.3;entryY=0.313;entryDx=0;entryDy=0;entryPerimeter=0;" parent="WIyWlLk6GJQsqaUBKTNV-1" source="C141bJPONEXLKHuDQMLV-57" target="C141bJPONEXLKHuDQMLV-58" edge="1">
          <mxGeometry relative="1" as="geometry">
            <Array as="points">
              <mxPoint x="-800" y="658" />
              <mxPoint x="-800" y="658" />
            </Array>
          </mxGeometry>
        </mxCell>
        <mxCell id="C141bJPONEXLKHuDQMLV-120" value="渠道下单" style="edgeLabel;html=1;align=center;verticalAlign=middle;resizable=0;points=[];" parent="C141bJPONEXLKHuDQMLV-69" vertex="1" connectable="0">
          <mxGeometry x="-0.1852" relative="1" as="geometry">
            <mxPoint as="offset" />
          </mxGeometry>
        </mxCell>
        <mxCell id="C141bJPONEXLKHuDQMLV-73" style="edgeStyle=orthogonalEdgeStyle;rounded=0;orthogonalLoop=1;jettySize=auto;html=1;entryX=-0.3;entryY=0.094;entryDx=0;entryDy=0;entryPerimeter=0;" parent="WIyWlLk6GJQsqaUBKTNV-1" source="C141bJPONEXLKHuDQMLV-56" target="C141bJPONEXLKHuDQMLV-57" edge="1">
          <mxGeometry relative="1" as="geometry">
            <Array as="points">
              <mxPoint x="-990" y="647" />
              <mxPoint x="-990" y="647" />
            </Array>
          </mxGeometry>
        </mxCell>
        <mxCell id="C141bJPONEXLKHuDQMLV-119" value="调用渠道支付" style="edgeLabel;html=1;align=center;verticalAlign=middle;resizable=0;points=[];" parent="C141bJPONEXLKHuDQMLV-73" vertex="1" connectable="0">
          <mxGeometry x="0.2417" y="3" relative="1" as="geometry">
            <mxPoint as="offset" />
          </mxGeometry>
        </mxCell>
        <mxCell id="C141bJPONEXLKHuDQMLV-74" style="edgeStyle=orthogonalEdgeStyle;rounded=0;orthogonalLoop=1;jettySize=auto;html=1;entryX=1;entryY=0.297;entryDx=0;entryDy=0;entryPerimeter=0;" parent="WIyWlLk6GJQsqaUBKTNV-1" source="C141bJPONEXLKHuDQMLV-58" target="C141bJPONEXLKHuDQMLV-57" edge="1">
          <mxGeometry relative="1" as="geometry" />
        </mxCell>
        <mxCell id="C141bJPONEXLKHuDQMLV-121" value="返回支付信息" style="edgeLabel;html=1;align=center;verticalAlign=middle;resizable=0;points=[];" parent="C141bJPONEXLKHuDQMLV-74" vertex="1" connectable="0">
          <mxGeometry x="0.1879" relative="1" as="geometry">
            <mxPoint as="offset" />
          </mxGeometry>
        </mxCell>
        <mxCell id="C141bJPONEXLKHuDQMLV-80" style="edgeStyle=orthogonalEdgeStyle;rounded=0;orthogonalLoop=1;jettySize=auto;html=1;entryX=-0.3;entryY=0.188;entryDx=0;entryDy=0;entryPerimeter=0;" parent="WIyWlLk6GJQsqaUBKTNV-1" source="C141bJPONEXLKHuDQMLV-57" target="C141bJPONEXLKHuDQMLV-78" edge="1">
          <mxGeometry relative="1" as="geometry">
            <Array as="points">
              <mxPoint x="-810" y="748" />
              <mxPoint x="-810" y="748" />
            </Array>
          </mxGeometry>
        </mxCell>
        <mxCell id="C141bJPONEXLKHuDQMLV-123" value="支付成功" style="edgeLabel;html=1;align=center;verticalAlign=middle;resizable=0;points=[];" parent="C141bJPONEXLKHuDQMLV-80" vertex="1" connectable="0">
          <mxGeometry x="-0.2222" y="1" relative="1" as="geometry">
            <mxPoint as="offset" />
          </mxGeometry>
        </mxCell>
        <mxCell id="C141bJPONEXLKHuDQMLV-86" style="edgeStyle=orthogonalEdgeStyle;rounded=0;orthogonalLoop=1;jettySize=auto;html=1;entryX=-0.1;entryY=0.325;entryDx=0;entryDy=0;entryPerimeter=0;" parent="WIyWlLk6GJQsqaUBKTNV-1" source="C141bJPONEXLKHuDQMLV-78" target="C141bJPONEXLKHuDQMLV-81" edge="1">
          <mxGeometry relative="1" as="geometry">
            <Array as="points">
              <mxPoint x="-610" y="759" />
              <mxPoint x="-610" y="759" />
            </Array>
          </mxGeometry>
        </mxCell>
        <mxCell id="C141bJPONEXLKHuDQMLV-124" value="支付结果通知" style="edgeLabel;html=1;align=center;verticalAlign=middle;resizable=0;points=[];" parent="C141bJPONEXLKHuDQMLV-86" vertex="1" connectable="0">
          <mxGeometry x="-0.1609" y="3" relative="1" as="geometry">
            <mxPoint as="offset" />
          </mxGeometry>
        </mxCell>
        <mxCell id="C141bJPONEXLKHuDQMLV-88" style="edgeStyle=orthogonalEdgeStyle;rounded=0;orthogonalLoop=1;jettySize=auto;html=1;entryX=0;entryY=0.358;entryDx=0;entryDy=0;entryPerimeter=0;" parent="WIyWlLk6GJQsqaUBKTNV-1" source="C141bJPONEXLKHuDQMLV-81" target="C141bJPONEXLKHuDQMLV-83" edge="1">
          <mxGeometry relative="1" as="geometry">
            <Array as="points">
              <mxPoint x="-440" y="776" />
              <mxPoint x="-440" y="776" />
            </Array>
          </mxGeometry>
        </mxCell>
        <mxCell id="C141bJPONEXLKHuDQMLV-125" value="支付结果通知" style="edgeLabel;html=1;align=center;verticalAlign=middle;resizable=0;points=[];" parent="C141bJPONEXLKHuDQMLV-88" vertex="1" connectable="0">
          <mxGeometry x="-0.1882" y="1" relative="1" as="geometry">
            <mxPoint as="offset" />
          </mxGeometry>
        </mxCell>
        <mxCell id="C141bJPONEXLKHuDQMLV-90" style="edgeStyle=orthogonalEdgeStyle;rounded=0;orthogonalLoop=1;jettySize=auto;html=1;entryX=1.1;entryY=0.8;entryDx=0;entryDy=0;entryPerimeter=0;" parent="WIyWlLk6GJQsqaUBKTNV-1" source="C141bJPONEXLKHuDQMLV-83" target="C141bJPONEXLKHuDQMLV-89" edge="1">
          <mxGeometry relative="1" as="geometry">
            <Array as="points">
              <mxPoint x="-550" y="847" />
              <mxPoint x="-550" y="847" />
            </Array>
          </mxGeometry>
        </mxCell>
        <mxCell id="C141bJPONEXLKHuDQMLV-129" value="下发道具" style="edgeLabel;html=1;align=center;verticalAlign=middle;resizable=0;points=[];" parent="C141bJPONEXLKHuDQMLV-90" vertex="1" connectable="0">
          <mxGeometry x="0.1023" relative="1" as="geometry">
            <mxPoint as="offset" />
          </mxGeometry>
        </mxCell>
        <mxCell id="C141bJPONEXLKHuDQMLV-91" style="edgeStyle=orthogonalEdgeStyle;rounded=0;orthogonalLoop=1;jettySize=auto;html=1;entryX=1.2;entryY=0.7;entryDx=0;entryDy=0;entryPerimeter=0;" parent="WIyWlLk6GJQsqaUBKTNV-1" source="C141bJPONEXLKHuDQMLV-81" target="C141bJPONEXLKHuDQMLV-78" edge="1">
          <mxGeometry relative="1" as="geometry">
            <Array as="points">
              <mxPoint x="-560" y="789" />
              <mxPoint x="-560" y="789" />
            </Array>
          </mxGeometry>
        </mxCell>
        <mxCell id="C141bJPONEXLKHuDQMLV-126" value="接收成功" style="edgeLabel;html=1;align=center;verticalAlign=middle;resizable=0;points=[];" parent="C141bJPONEXLKHuDQMLV-91" vertex="1" connectable="0">
          <mxGeometry x="0.1676" y="-2" relative="1" as="geometry">
            <mxPoint as="offset" />
          </mxGeometry>
        </mxCell>
        <mxCell id="C141bJPONEXLKHuDQMLV-92" style="edgeStyle=orthogonalEdgeStyle;rounded=0;orthogonalLoop=1;jettySize=auto;html=1;entryX=1.1;entryY=0.8;entryDx=0;entryDy=0;entryPerimeter=0;" parent="WIyWlLk6GJQsqaUBKTNV-1" source="C141bJPONEXLKHuDQMLV-83" target="C141bJPONEXLKHuDQMLV-81" edge="1">
          <mxGeometry relative="1" as="geometry">
            <Array as="points">
              <mxPoint x="-390" y="797" />
              <mxPoint x="-390" y="797" />
            </Array>
          </mxGeometry>
        </mxCell>
        <mxCell id="C141bJPONEXLKHuDQMLV-127" value="接收成功" style="edgeLabel;html=1;align=center;verticalAlign=middle;resizable=0;points=[];" parent="C141bJPONEXLKHuDQMLV-92" vertex="1" connectable="0">
          <mxGeometry x="0.2071" relative="1" as="geometry">
            <mxPoint as="offset" />
          </mxGeometry>
        </mxCell>
        <mxCell id="C141bJPONEXLKHuDQMLV-94" value="登录" style="edgeLabel;html=1;align=center;verticalAlign=middle;resizable=0;points=[];" parent="WIyWlLk6GJQsqaUBKTNV-1" vertex="1" connectable="0">
          <mxGeometry x="-1140" y="50" as="geometry">
            <mxPoint x="177" y="-9" as="offset" />
          </mxGeometry>
        </mxCell>
        <mxCell id="C141bJPONEXLKHuDQMLV-95" value="登录" style="edgeLabel;html=1;align=center;verticalAlign=middle;resizable=0;points=[];" parent="WIyWlLk6GJQsqaUBKTNV-1" vertex="1" connectable="0">
          <mxGeometry x="-1120" y="60" as="geometry">
            <mxPoint x="346" y="-21" as="offset" />
          </mxGeometry>
        </mxCell>
        <mxCell id="C141bJPONEXLKHuDQMLV-97" value="登录成功" style="edgeLabel;html=1;align=center;verticalAlign=middle;resizable=0;points=[];" parent="WIyWlLk6GJQsqaUBKTNV-1" vertex="1" connectable="0">
          <mxGeometry x="-960" y="100" as="geometry" />
        </mxCell>
        <mxCell id="C141bJPONEXLKHuDQMLV-102" value="返回userid等信息" style="edgeLabel;html=1;align=center;verticalAlign=middle;resizable=0;points=[];" parent="WIyWlLk6GJQsqaUBKTNV-1" vertex="1" connectable="0">
          <mxGeometry x="-770" y="288" as="geometry">
            <mxPoint x="-377" as="offset" />
          </mxGeometry>
        </mxCell>
        <mxCell id="C141bJPONEXLKHuDQMLV-104" style="edgeStyle=orthogonalEdgeStyle;rounded=0;orthogonalLoop=1;jettySize=auto;html=1;entryX=1.2;entryY=0.163;entryDx=0;entryDy=0;entryPerimeter=0;" parent="WIyWlLk6GJQsqaUBKTNV-1" source="C141bJPONEXLKHuDQMLV-51" target="C141bJPONEXLKHuDQMLV-103" edge="1">
          <mxGeometry relative="1" as="geometry">
            <Array as="points">
              <mxPoint x="-360" y="383" />
              <mxPoint x="-360" y="383" />
            </Array>
          </mxGeometry>
        </mxCell>
        <mxCell id="C141bJPONEXLKHuDQMLV-107" value="登录校验" style="edgeLabel;html=1;align=center;verticalAlign=middle;resizable=0;points=[];" parent="C141bJPONEXLKHuDQMLV-104" vertex="1" connectable="0">
          <mxGeometry x="-0.131" y="-1" relative="1" as="geometry">
            <mxPoint as="offset" />
          </mxGeometry>
        </mxCell>
        <mxCell id="C141bJPONEXLKHuDQMLV-108" style="edgeStyle=orthogonalEdgeStyle;rounded=0;orthogonalLoop=1;jettySize=auto;html=1;entryX=-0.3;entryY=0.909;entryDx=0;entryDy=0;entryPerimeter=0;" parent="WIyWlLk6GJQsqaUBKTNV-1" source="C141bJPONEXLKHuDQMLV-103" target="C141bJPONEXLKHuDQMLV-51" edge="1">
          <mxGeometry relative="1" as="geometry" />
        </mxCell>
        <mxCell id="C141bJPONEXLKHuDQMLV-109" value="校验成功" style="edgeLabel;html=1;align=center;verticalAlign=middle;resizable=0;points=[];" parent="C141bJPONEXLKHuDQMLV-108" vertex="1" connectable="0">
          <mxGeometry x="0.2216" y="1" relative="1" as="geometry">
            <mxPoint as="offset" />
          </mxGeometry>
        </mxCell>
        <mxCell id="C141bJPONEXLKHuDQMLV-112" style="edgeStyle=orthogonalEdgeStyle;rounded=0;orthogonalLoop=1;jettySize=auto;html=1;entryX=0.5;entryY=0.833;entryDx=0;entryDy=0;entryPerimeter=0;" parent="WIyWlLk6GJQsqaUBKTNV-1" source="C141bJPONEXLKHuDQMLV-110" target="C141bJPONEXLKHuDQMLV-111" edge="1">
          <mxGeometry relative="1" as="geometry" />
        </mxCell>
        <mxCell id="C141bJPONEXLKHuDQMLV-113" value="返回选择服务器信息" style="edgeLabel;html=1;align=center;verticalAlign=middle;resizable=0;points=[];" parent="C141bJPONEXLKHuDQMLV-112" vertex="1" connectable="0">
          <mxGeometry x="0.0623" relative="1" as="geometry">
            <mxPoint as="offset" />
          </mxGeometry>
        </mxCell>
        <mxCell id="C141bJPONEXLKHuDQMLV-130" value="注册开发者" style="rounded=1;whiteSpace=wrap;html=1;" parent="WIyWlLk6GJQsqaUBKTNV-1" vertex="1">
          <mxGeometry x="-1080" y="930" width="120" height="60" as="geometry" />
        </mxCell>
        <mxCell id="yMdJhrfQFzJRElw5PAQI-9" style="edgeStyle=orthogonalEdgeStyle;rounded=0;orthogonalLoop=1;jettySize=auto;html=1;entryX=0.5;entryY=0;entryDx=0;entryDy=0;" edge="1" parent="WIyWlLk6GJQsqaUBKTNV-1" source="yMdJhrfQFzJRElw5PAQI-0" target="yMdJhrfQFzJRElw5PAQI-1">
          <mxGeometry relative="1" as="geometry" />
        </mxCell>
        <mxCell id="yMdJhrfQFzJRElw5PAQI-0" value="启动" style="rounded=1;whiteSpace=wrap;html=1;" vertex="1" parent="WIyWlLk6GJQsqaUBKTNV-1">
          <mxGeometry x="-1500" y="-1120" width="120" height="60" as="geometry" />
        </mxCell>
        <mxCell id="yMdJhrfQFzJRElw5PAQI-37" style="edgeStyle=orthogonalEdgeStyle;rounded=0;orthogonalLoop=1;jettySize=auto;html=1;entryX=0;entryY=0.5;entryDx=0;entryDy=0;" edge="1" parent="WIyWlLk6GJQsqaUBKTNV-1" source="yMdJhrfQFzJRElw5PAQI-1" target="yMdJhrfQFzJRElw5PAQI-36">
          <mxGeometry relative="1" as="geometry" />
        </mxCell>
        <mxCell id="yMdJhrfQFzJRElw5PAQI-48" style="edgeStyle=orthogonalEdgeStyle;rounded=0;orthogonalLoop=1;jettySize=auto;html=1;entryX=0.5;entryY=0;entryDx=0;entryDy=0;" edge="1" parent="WIyWlLk6GJQsqaUBKTNV-1" source="yMdJhrfQFzJRElw5PAQI-1" target="yMdJhrfQFzJRElw5PAQI-31">
          <mxGeometry relative="1" as="geometry" />
        </mxCell>
        <mxCell id="yMdJhrfQFzJRElw5PAQI-1" value="初始化&lt;br&gt;获取公告配置" style="rounded=0;whiteSpace=wrap;html=1;" vertex="1" parent="WIyWlLk6GJQsqaUBKTNV-1">
          <mxGeometry x="-1500" y="-1040" width="120" height="60" as="geometry" />
        </mxCell>
        <mxCell id="yMdJhrfQFzJRElw5PAQI-11" value="是" style="edgeStyle=orthogonalEdgeStyle;rounded=0;orthogonalLoop=1;jettySize=auto;html=1;entryX=0.5;entryY=0;entryDx=0;entryDy=0;" edge="1" parent="WIyWlLk6GJQsqaUBKTNV-1" source="yMdJhrfQFzJRElw5PAQI-3" target="yMdJhrfQFzJRElw5PAQI-4">
          <mxGeometry relative="1" as="geometry" />
        </mxCell>
        <mxCell id="yMdJhrfQFzJRElw5PAQI-17" style="edgeStyle=orthogonalEdgeStyle;rounded=0;orthogonalLoop=1;jettySize=auto;html=1;entryX=1;entryY=0.5;entryDx=0;entryDy=0;" edge="1" parent="WIyWlLk6GJQsqaUBKTNV-1" source="yMdJhrfQFzJRElw5PAQI-3" target="yMdJhrfQFzJRElw5PAQI-5">
          <mxGeometry relative="1" as="geometry">
            <Array as="points">
              <mxPoint x="-1270" y="-800" />
              <mxPoint x="-1270" y="-600" />
            </Array>
          </mxGeometry>
        </mxCell>
        <mxCell id="yMdJhrfQFzJRElw5PAQI-49" value="否" style="edgeLabel;html=1;align=center;verticalAlign=middle;resizable=0;points=[];" vertex="1" connectable="0" parent="yMdJhrfQFzJRElw5PAQI-17">
          <mxGeometry x="-0.6237" relative="1" as="geometry">
            <mxPoint as="offset" />
          </mxGeometry>
        </mxCell>
        <mxCell id="yMdJhrfQFzJRElw5PAQI-3" value="是否存在登录前&lt;br&gt;公告" style="rhombus;whiteSpace=wrap;html=1;fillColor=#ffe6cc;strokeColor=#d79b00;" vertex="1" parent="WIyWlLk6GJQsqaUBKTNV-1">
          <mxGeometry x="-1480" y="-839" width="80" height="80" as="geometry" />
        </mxCell>
        <mxCell id="yMdJhrfQFzJRElw5PAQI-12" style="edgeStyle=orthogonalEdgeStyle;rounded=0;orthogonalLoop=1;jettySize=auto;html=1;entryX=0.5;entryY=0;entryDx=0;entryDy=0;" edge="1" parent="WIyWlLk6GJQsqaUBKTNV-1" source="yMdJhrfQFzJRElw5PAQI-4" target="yMdJhrfQFzJRElw5PAQI-5">
          <mxGeometry relative="1" as="geometry" />
        </mxCell>
        <mxCell id="yMdJhrfQFzJRElw5PAQI-4" value="展示H5页面&lt;br&gt;展示公告信息" style="rounded=0;whiteSpace=wrap;html=1;fillColor=#ffe6cc;strokeColor=#d79b00;" vertex="1" parent="WIyWlLk6GJQsqaUBKTNV-1">
          <mxGeometry x="-1500" y="-730" width="120" height="60" as="geometry" />
        </mxCell>
        <mxCell id="yMdJhrfQFzJRElw5PAQI-13" style="edgeStyle=orthogonalEdgeStyle;rounded=0;orthogonalLoop=1;jettySize=auto;html=1;entryX=0.5;entryY=0;entryDx=0;entryDy=0;" edge="1" parent="WIyWlLk6GJQsqaUBKTNV-1" source="yMdJhrfQFzJRElw5PAQI-5" target="yMdJhrfQFzJRElw5PAQI-7">
          <mxGeometry relative="1" as="geometry" />
        </mxCell>
        <mxCell id="yMdJhrfQFzJRElw5PAQI-5" value="登录账号流程" style="rounded=0;whiteSpace=wrap;html=1;" vertex="1" parent="WIyWlLk6GJQsqaUBKTNV-1">
          <mxGeometry x="-1500" y="-630" width="120" height="60" as="geometry" />
        </mxCell>
        <mxCell id="yMdJhrfQFzJRElw5PAQI-41" value="" style="edgeStyle=orthogonalEdgeStyle;rounded=0;orthogonalLoop=1;jettySize=auto;html=1;" edge="1" parent="WIyWlLk6GJQsqaUBKTNV-1" source="yMdJhrfQFzJRElw5PAQI-7" target="yMdJhrfQFzJRElw5PAQI-40">
          <mxGeometry relative="1" as="geometry" />
        </mxCell>
        <mxCell id="yMdJhrfQFzJRElw5PAQI-43" value="是" style="edgeLabel;html=1;align=center;verticalAlign=middle;resizable=0;points=[];" vertex="1" connectable="0" parent="yMdJhrfQFzJRElw5PAQI-41">
          <mxGeometry x="0.12" y="-5" relative="1" as="geometry">
            <mxPoint as="offset" />
          </mxGeometry>
        </mxCell>
        <mxCell id="yMdJhrfQFzJRElw5PAQI-46" style="edgeStyle=orthogonalEdgeStyle;rounded=0;orthogonalLoop=1;jettySize=auto;html=1;entryX=0.5;entryY=0;entryDx=0;entryDy=0;" edge="1" parent="WIyWlLk6GJQsqaUBKTNV-1" source="yMdJhrfQFzJRElw5PAQI-7" target="yMdJhrfQFzJRElw5PAQI-15">
          <mxGeometry relative="1" as="geometry" />
        </mxCell>
        <mxCell id="yMdJhrfQFzJRElw5PAQI-47" value="否" style="edgeLabel;html=1;align=center;verticalAlign=middle;resizable=0;points=[];" vertex="1" connectable="0" parent="yMdJhrfQFzJRElw5PAQI-46">
          <mxGeometry x="-0.6923" y="3" relative="1" as="geometry">
            <mxPoint as="offset" />
          </mxGeometry>
        </mxCell>
        <mxCell id="yMdJhrfQFzJRElw5PAQI-7" value="存在登录后&lt;br&gt;公告" style="rhombus;whiteSpace=wrap;html=1;fillColor=#ffe6cc;strokeColor=#d79b00;" vertex="1" parent="WIyWlLk6GJQsqaUBKTNV-1">
          <mxGeometry x="-1480" y="-526" width="80" height="80" as="geometry" />
        </mxCell>
        <mxCell id="yMdJhrfQFzJRElw5PAQI-16" style="edgeStyle=orthogonalEdgeStyle;rounded=0;orthogonalLoop=1;jettySize=auto;html=1;" edge="1" parent="WIyWlLk6GJQsqaUBKTNV-1" source="yMdJhrfQFzJRElw5PAQI-8" target="yMdJhrfQFzJRElw5PAQI-15">
          <mxGeometry relative="1" as="geometry" />
        </mxCell>
        <mxCell id="yMdJhrfQFzJRElw5PAQI-8" value="展示H5页面&lt;br&gt;展示公告信息" style="rounded=0;whiteSpace=wrap;html=1;fillColor=#ffe6cc;strokeColor=#d79b00;" vertex="1" parent="WIyWlLk6GJQsqaUBKTNV-1">
          <mxGeometry x="-1310" y="-416" width="120" height="60" as="geometry" />
        </mxCell>
        <mxCell id="yMdJhrfQFzJRElw5PAQI-15" value="回调sdk登录结果" style="rounded=1;whiteSpace=wrap;html=1;" vertex="1" parent="WIyWlLk6GJQsqaUBKTNV-1">
          <mxGeometry x="-1500" y="-316" width="120" height="60" as="geometry" />
        </mxCell>
        <mxCell id="yMdJhrfQFzJRElw5PAQI-34" style="edgeStyle=orthogonalEdgeStyle;rounded=0;orthogonalLoop=1;jettySize=auto;html=1;" edge="1" parent="WIyWlLk6GJQsqaUBKTNV-1" source="yMdJhrfQFzJRElw5PAQI-31" target="yMdJhrfQFzJRElw5PAQI-3">
          <mxGeometry relative="1" as="geometry" />
        </mxCell>
        <mxCell id="yMdJhrfQFzJRElw5PAQI-31" value="调用登录&lt;br&gt;接口" style="rounded=0;whiteSpace=wrap;html=1;" vertex="1" parent="WIyWlLk6GJQsqaUBKTNV-1">
          <mxGeometry x="-1500" y="-925.5" width="120" height="60" as="geometry" />
        </mxCell>
        <mxCell id="yMdJhrfQFzJRElw5PAQI-36" value="调用GM接口&lt;br style=&quot;border-color: var(--border-color);&quot;&gt;获取到登录前公告内容&lt;br style=&quot;border-color: var(--border-color);&quot;&gt;登录后公告内容" style="rounded=0;whiteSpace=wrap;html=1;" vertex="1" parent="WIyWlLk6GJQsqaUBKTNV-1">
          <mxGeometry x="-1150" y="-1040" width="130" height="60" as="geometry" />
        </mxCell>
        <mxCell id="yMdJhrfQFzJRElw5PAQI-42" style="edgeStyle=orthogonalEdgeStyle;rounded=0;orthogonalLoop=1;jettySize=auto;html=1;entryX=1;entryY=0.5;entryDx=0;entryDy=0;" edge="1" parent="WIyWlLk6GJQsqaUBKTNV-1" source="yMdJhrfQFzJRElw5PAQI-40" target="yMdJhrfQFzJRElw5PAQI-8">
          <mxGeometry relative="1" as="geometry">
            <Array as="points">
              <mxPoint x="-1085" y="-386" />
            </Array>
          </mxGeometry>
        </mxCell>
        <mxCell id="yMdJhrfQFzJRElw5PAQI-44" value="是" style="edgeLabel;html=1;align=center;verticalAlign=middle;resizable=0;points=[];" vertex="1" connectable="0" parent="yMdJhrfQFzJRElw5PAQI-42">
          <mxGeometry x="0.031" relative="1" as="geometry">
            <mxPoint as="offset" />
          </mxGeometry>
        </mxCell>
        <mxCell id="yMdJhrfQFzJRElw5PAQI-45" value="否" style="edgeStyle=orthogonalEdgeStyle;rounded=0;orthogonalLoop=1;jettySize=auto;html=1;entryX=1;entryY=0.5;entryDx=0;entryDy=0;" edge="1" parent="WIyWlLk6GJQsqaUBKTNV-1" source="yMdJhrfQFzJRElw5PAQI-40" target="yMdJhrfQFzJRElw5PAQI-15">
          <mxGeometry relative="1" as="geometry">
            <Array as="points">
              <mxPoint x="-990" y="-486" />
              <mxPoint x="-990" y="-286" />
            </Array>
          </mxGeometry>
        </mxCell>
        <mxCell id="yMdJhrfQFzJRElw5PAQI-40" value="请求服务端该账号是否要展示" style="rhombus;whiteSpace=wrap;html=1;fillColor=#ffe6cc;strokeColor=#d79b00;" vertex="1" parent="WIyWlLk6GJQsqaUBKTNV-1">
          <mxGeometry x="-1125" y="-526" width="80" height="80" as="geometry" />
        </mxCell>
      </root>
    </mxGraphModel>
  </diagram>
</mxfile>
